<?xml version="1.0" standalone="no"?>
<!DOCTYPE svg PUBLIC "-//W3C//DTD SVG 20010904//EN"
 "http://www.w3.org/TR/2001/REC-SVG-20010904/DTD/svg10.dtd">
<svg version="1.0" xmlns="http://www.w3.org/2000/svg"
 width="700.000000pt" height="700.000000pt" viewBox="0 0 700.000000 700.000000"
 preserveAspectRatio="xMidYMid meet">
<metadata>
Created by potrace 1.14, written by Peter Selinger 2001-2017
</metadata>
<g transform="translate(0.000000,700.000000) scale(0.100000,-0.100000)"
fill="#000000" stroke="none">
<path d="M3883 6079 c-18 -5 -45 -26 -60 -46 l-28 -36 -2 -332 c-2 -218 1
-343 8 -363 16 -46 62 -86 116 -101 320 -88 567 -224 788 -433 158 -150 145
-151 500 52 154 89 290 172 302 185 30 33 44 88 33 126 -21 73 -254 306 -480
482 -119 93 -421 260 -585 324 -117 46 -271 96 -335 108 -8 2 -33 8 -55 14
-39 10 -79 17 -140 26 -16 2 -44 -1 -62 -6z"/>
<path d="M2957 5693 c-307 -77 -592 -215 -837 -404 -131 -101 -295 -262 -320
-314 -47 -98 22 -205 133 -205 45 0 78 24 182 127 249 247 578 431 914 513
113 28 156 60 172 128 8 35 6 51 -10 87 -37 83 -101 102 -234 68z"/>
<path d="M5560 4352 c-342 -198 -340 -197 -364 -234 -27 -42 -29 -82 -7 -161
10 -39 25 -101 31 -137 6 -36 14 -76 17 -90 3 -14 6 -104 8 -200 2 -189 -9
-299 -50 -461 -27 -108 -26 -147 7 -195 20 -29 164 -124 189 -124 5 0 9 -4 9
-10 0 -5 4 -10 9 -10 5 0 110 -59 233 -130 124 -72 235 -130 247 -130 26 0 55
58 103 205 182 561 177 1124 -14 1690 -43 128 -64 165 -91 165 -12 0 -159 -80
-327 -178z"/>
<path d="M1414 4276 c-42 -24 -65 -70 -98 -196 -49 -184 -69 -339 -70 -545 0
-104 2 -224 6 -265 16 -161 75 -427 112 -498 41 -79 144 -101 214 -45 57 46
67 89 42 182 -27 100 -66 283 -75 346 -4 28 -8 120 -10 205 -4 232 17 389 83
620 22 78 15 131 -25 172 -48 51 -116 60 -179 24z"/>
<path d="M4814 2327 c-12 -7 -57 -45 -100 -86 -216 -203 -434 -331 -709 -415
-142 -43 -169 -58 -194 -108 -20 -42 -21 -58 -21 -365 0 -354 3 -372 61 -414
46 -33 97 -31 266 11 152 38 172 44 343 108 94 35 350 161 406 199 16 11 49
33 74 49 79 51 233 169 305 234 94 84 241 236 272 283 51 74 27 155 -62 212
-30 19 -56 35 -58 35 -2 0 -109 61 -237 135 -208 120 -239 135 -280 135 -25
-1 -55 -6 -66 -13z"/>
<path d="M1862 2213 c-60 -29 -89 -99 -71 -167 20 -76 269 -305 481 -443 195
-127 497 -258 683 -298 11 -2 31 -7 45 -10 52 -12 113 -7 138 12 64 48 84 109
58 177 -22 56 -61 80 -184 110 -167 42 -388 134 -530 221 -132 81 -245 169
-368 288 -58 56 -115 107 -127 114 -31 17 -86 16 -125 -4z"/>
</g>
</svg>
